<?xml version="1.0" encoding="UTF-8"?>
<svg version="1.1" xmlns="http://www.w3.org/2000/svg" width="196" height="42">
<path d="M0 0 C64.68 0 129.36 0 196 0 C196 13.86 196 27.72 196 42 C131.32 42 66.64 42 0 42 C0 28.14 0 14.28 0 0 Z " fill="#FDFDFD" transform="translate(0,0)"/>
<path d="M0 0 C1.69141656 0.08963062 3.37959602 0.24577676 5.0625 0.4375 C6.44115234 0.59025391 6.44115234 0.59025391 7.84765625 0.74609375 C8.55792969 0.82988281 9.26820312 0.91367188 10 1 C10 1.66 10 2.32 10 3 C10.99 3.33 11.98 3.66 13 4 C13 4.66 13 5.32 13 6 C13.66 6 14.32 6 15 6 C13.25 11.75 13.25 11.75 11 14 C10.67 13.34 10.34 12.68 10 12 C10.9375 9.375 10.9375 9.375 12 7 C10.02 6.34 8.04 5.68 6 5 C6.99 5.66 7.98 6.32 9 7 C9.8125 8.9375 9.8125 8.9375 10 11 C9.01 12.485 9.01 12.485 8 14 C8.66 14.33 9.32 14.66 10 15 C10 16.65 10 18.3 10 20 C10.45375 19.175 10.9075 18.35 11.375 17.5 C11.91125 16.675 12.4475 15.85 13 15 C13.66 15 14.32 15 15 15 C13.65846062 20.00028314 11.51629997 24.19067503 8 28 C7.34 28 6.68 28 6 28 C6 28.66 6 29.32 6 30 C5.34 29.67 4.68 29.34 4 29 C4.33 28.34 4.66 27.68 5 27 C1.41847887 26.21381243 -0.93284569 25.98586225 -4.5625 26.75 C-8 27 -8 27 -10.875 24.8125 C-12.85582052 22.19082578 -13.2918189 21.03506184 -14 18 C-15.32848691 16.99357052 -16.66150329 15.99307821 -18 15 C-18 14.01 -18 13.02 -18 12 C-17.34 12 -16.68 12 -16 12 C-15.67 12.66 -15.34 13.32 -15 14 C-12.97536745 14.65213292 -12.97536745 14.65213292 -11 15 C-10.67 14.01 -10.34 13.02 -10 12 C-9.67 12.99 -9.34 13.98 -9 15 C-9.66 15.66 -10.32 16.32 -11 17 C-10.6730244 19.61580479 -10.17960932 21.64078137 -9 24 C-5.97065509 24.65772428 -5.97065509 24.65772428 -3 25 C-3 24.34 -3 23.68 -3 23 C-4.32 23.33 -5.64 23.66 -7 24 C-7 19.38 -7 14.76 -7 10 C-6.01 10 -5.02 10 -4 10 C-3.79503906 9.36191406 -3.59007812 8.72382813 -3.37890625 8.06640625 C-3.10949219 7.24011719 -2.84007812 6.41382813 -2.5625 5.5625 C-2.16224609 4.32693359 -2.16224609 4.32693359 -1.75390625 3.06640625 C-1 1 -1 1 0 0 Z " fill="#B8A065" transform="translate(27,6)"/>
<path d="M0 0 C3.0625 0.1875 3.0625 0.1875 5.0625 2.1875 C4.6875 4.6875 4.6875 4.6875 4.0625 7.1875 C4.0625 7.8475 4.0625 8.5075 4.0625 9.1875 C5.3825 9.8475 6.7025 10.5075 8.0625 11.1875 C7.7325 7.5575 7.4025 3.9275 7.0625 0.1875 C9.04159398 0.16063447 11.02078971 0.14116625 13 0.125 C14.10214844 0.11339844 15.20429687 0.10179688 16.33984375 0.08984375 C19.0625 0.1875 19.0625 0.1875 20.0625 1.1875 C20.52462633 4.8445738 20.76679173 8.51226863 21.0625 12.1875 C16.4425 12.1875 11.8225 12.1875 7.0625 12.1875 C6.7325 13.5075 6.4025 14.8275 6.0625 16.1875 C5.0725 16.1875 4.0825 16.1875 3.0625 16.1875 C3.3925 15.1975 3.7225 14.2075 4.0625 13.1875 C1.7525 13.1875 -0.5575 13.1875 -2.9375 13.1875 C-2.6075 14.5075 -2.2775 15.8275 -1.9375 17.1875 C-3.2575 16.8575 -4.5775 16.5275 -5.9375 16.1875 C-5.7725 15.094375 -5.6075 14.00125 -5.4375 12.875 C-4.87031816 9.31224127 -4.87031816 9.31224127 -4.9375 6.1875 C-3.94825269 0.25201613 -3.94825269 0.25201613 0 0 Z " fill="#B0C0D7" transform="translate(94.9375,16.8125)"/>
<path d="M0 0 C1.65 0 3.3 0 5 0 C5 5.28 5 10.56 5 16 C6.32 15.34 7.64 14.68 9 14 C9.02694851 12.04174127 9.04637218 10.08337774 9.0625 8.125 C9.07410156 7.03445312 9.08570313 5.94390625 9.09765625 4.8203125 C9.19744303 2.04822454 9.19744303 2.04822454 8 0 C12.75 0.75 12.75 0.75 15 3 C15.50421994 6.03704568 15.45467228 8.95802594 15 12 C13.12379387 14.50160818 11.76108697 15.61945652 9 17 C7.29297265 17.06996014 5.58331997 17.08440154 3.875 17.0625 C2.26625 17.041875 0.6575 17.02125 -1 17 C-0.67 11.39 -0.34 5.78 0 0 Z " fill="#3E669D" transform="translate(52,12)"/>
<path d="M0 0 C3.0625 0.1875 3.0625 0.1875 5.0625 2.1875 C4.6875 4.6875 4.6875 4.6875 4.0625 7.1875 C4.0625 7.8475 4.0625 8.5075 4.0625 9.1875 C4.7225 9.5175 5.3825 9.8475 6.0625 10.1875 C6.0625 12.1675 6.0625 14.1475 6.0625 16.1875 C5.0725 16.1875 4.0825 16.1875 3.0625 16.1875 C3.3925 15.1975 3.7225 14.2075 4.0625 13.1875 C1.7525 13.1875 -0.5575 13.1875 -2.9375 13.1875 C-2.6075 14.5075 -2.2775 15.8275 -1.9375 17.1875 C-3.2575 16.8575 -4.5775 16.5275 -5.9375 16.1875 C-5.7725 15.094375 -5.6075 14.00125 -5.4375 12.875 C-4.87031816 9.31224127 -4.87031816 9.31224127 -4.9375 6.1875 C-3.94825269 0.25201613 -3.94825269 0.25201613 0 0 Z " fill="#6A89B3" transform="translate(94.9375,16.8125)"/>
<path d="M0 0 C2 2 2 2 2.3125 5.4375 C2 9 2 9 0.875 10.9375 C-1.88980433 12.50422245 -3.88188517 12.38976435 -7 12 C-8.875 10.875 -8.875 10.875 -10 9 C-10.38976435 5.88188517 -10.50422245 3.88980433 -8.9375 1.125 C-5.93267901 -0.61973477 -3.39189869 -0.30835443 0 0 Z " fill="#6D8CB5" transform="translate(127,17)"/>
<path d="M0 0 C1.134375 0.020625 2.26875 0.04125 3.4375 0.0625 C3.1075 1.0525 2.7775 2.0425 2.4375 3.0625 C-0.0375 2.0725 -0.0375 2.0725 -2.5625 1.0625 C-2.5625 1.7225 -2.5625 2.3825 -2.5625 3.0625 C-1.758125 3.206875 -0.95375 3.35125 -0.125 3.5 C2.4375 4.0625 2.4375 4.0625 3.4375 5.0625 C4.7575 3.4125 6.0775 1.7625 7.4375 0.0625 C8.4275 0.3925 9.4175 0.7225 10.4375 1.0625 C10.40269531 1.68898438 10.36789063 2.31546875 10.33203125 2.9609375 C10.30496094 3.77820313 10.27789062 4.59546875 10.25 5.4375 C10.21519531 6.24960937 10.18039063 7.06171875 10.14453125 7.8984375 C10.24121094 8.61257812 10.33789062 9.32671875 10.4375 10.0625 C11.4275 10.7225 12.4175 11.3825 13.4375 12.0625 C6.8125 11.3125 6.8125 11.3125 3.4375 9.0625 C3.4375 9.7225 3.4375 10.3825 3.4375 11.0625 C2.7775 11.0625 2.1175 11.0625 1.4375 11.0625 C1.1075 10.4025 0.7775 9.7425 0.4375 9.0625 C-1.53772846 8.01441959 -3.53731509 7.0104589 -5.5625 6.0625 C-4.48849278 0.07874549 -4.48849278 0.07874549 0 0 Z " fill="#486EA2" transform="translate(135.5625,16.9375)"/>
<path d="M0 0 C-0.30893932 1.6256807 -0.6222695 3.25052748 -0.9375 4.875 C-1.11152344 5.77992187 -1.28554688 6.68484375 -1.46484375 7.6171875 C-2 10 -2 10 -3 12 C-5.3125 12 -5.3125 12 -8 11 C-9.96880227 7.75333361 -11.28989907 4.52592328 -10.5703125 0.73828125 C-10.38210938 0.16464844 -10.19390625 -0.40898437 -10 -1 C-6.18510326 -2.46726798 -3.70988378 -1.43336419 0 0 Z " fill="#FBFCFD" transform="translate(19,9)"/>
<path d="M0 0 C1.875 0.3125 1.875 0.3125 4 1 C4.66 1.99 5.32 2.98 6 4 C5.01 4.495 5.01 4.495 4 5 C6.475 5.99 6.475 5.99 9 7 C8.44271087 10.34373475 7.64826111 13.03312999 6 16 C4.68 15.67 3.36 15.34 2 15 C2.33 12.36 2.66 9.72 3 7 C0.49962266 9.17424117 -0.43628586 10.73045798 -1 14 C-1.99 13.34 -2.98 12.68 -4 12 C-3.45660208 7.43545749 -2.20536179 4.0271824 0 0 Z " fill="#C094A6" transform="translate(26,14)"/>
<path d="M0 0 C1.65 0.33 3.3 0.66 5 1 C6 8.625 6 8.625 6 12 C2.7 12 -0.6 12 -4 12 C-4.33 10.35 -4.66 8.7 -5 7 C-3.35 6.67 -1.7 6.34 0 6 C0 4.02 0 2.04 0 0 Z " fill="#275491" transform="translate(82,17)"/>
<path d="M0 0 C1.65 0 3.3 0 5 0 C5.33 5.61 5.66 11.22 6 17 C3.69 17 1.38 17 -1 17 C-0.67 11.39 -0.34 5.78 0 0 Z " fill="#2B5793" transform="translate(175,12)"/>
<path d="M0 0 C0.99 0.33 1.98 0.66 3 1 C4.20057976 3.69035026 5.22808495 6.28848759 6.1875 9.0625 C6.46013672 9.82111328 6.73277344 10.57972656 7.01367188 11.36132812 C7.68615396 13.2371992 8.34442951 15.11815203 9 17 C6.36 17 3.72 17 1 17 C0.67 13.37 0.34 9.74 0 6 C-0.66 6 -1.32 6 -2 6 C-1.125 1.125 -1.125 1.125 0 0 Z " fill="#325D97" transform="translate(164,12)"/>
<path d="M0 0 C0.66 0 1.32 0 2 0 C2 1.65 2 3.3 2 5 C2.45375 4.175 2.9075 3.35 3.375 2.5 C3.91125 1.675 4.4475 0.85 5 0 C5.66 0 6.32 0 7 0 C5.65846062 5.00028314 3.51629997 9.19067503 0 13 C-0.66 13 -1.32 13 -2 13 C-2 13.66 -2 14.32 -2 15 C-2.66 14.67 -3.32 14.34 -4 14 C-3.67 13.34 -3.34 12.68 -3 12 C-4.98 11.34 -6.96 10.68 -9 10 C-8.34 9.01 -7.68 8.02 -7 7 C-5.68 7.66 -4.36 8.32 -3 9 C-2.01 6.03 -1.02 3.06 0 0 Z " fill="#BAA870" transform="translate(35,21)"/>
<path d="M0 0 C0.66 0 1.32 0 2 0 C2.33 0.66 2.66 1.32 3 2 C5.02463255 2.65213292 5.02463255 2.65213292 7 3 C7.33 2.01 7.66 1.02 8 0 C8.33 0.99 8.66 1.98 9 3 C8.34 3.66 7.68 4.32 7 5 C7.3269756 7.61580479 7.82039068 9.64078137 9 12 C11.32156597 12.40729228 13.6568787 12.74438677 16 13 C16.33 11.02 16.66 9.04 17 7 C16.34 6.67 15.68 6.34 15 6 C16.375 4.5 16.375 4.5 18 3 C18.66 3 19.32 3 20 3 C19.67 4.65 19.34 6.3 19 8 C19.66 8.33 20.32 8.66 21 9 C20 10 19 11 18 12 C17.5875 12.5775 17.175 13.155 16.75 13.75 C15 15 15 15 11.5 14.9375 C8 14 8 14 6.125 12.1875 C5 10 5 10 4.5625 7.9375 C3.79125902 5.28100328 2.17139816 4.61103734 0 3 C0 2.01 0 1.02 0 0 Z " fill="#304B64" transform="translate(9,18)"/>
<path d="M0 0 C1.98 0.66 3.96 1.32 6 2 C6.33 8.93 6.66 15.86 7 23 C7.99 23 8.98 23 10 23 C10 23.66 10 24.32 10 25 C7.1875 25.3125 7.1875 25.3125 4 25 C2.0625 22.75 2.0625 22.75 1 20 C1.25 17.9375 1.25 17.9375 2 16 C2.81626105 13.09012283 3.25322701 10.25436614 3.5625 7.25 C3.64628906 6.45078125 3.73007812 5.6515625 3.81640625 4.828125 C3.87699219 4.22484375 3.93757813 3.6215625 4 3 C2.68 2.67 1.36 2.34 0 2 C0 1.34 0 0.68 0 0 Z " fill="#CDD6DA" transform="translate(14,6)"/>
<path d="M0 0 C1.32 0 2.64 0 4 0 C4 5.28 4 10.56 4 16 C2.68 16 1.36 16 0 16 C0 10.72 0 5.44 0 0 Z " fill="#144588" transform="translate(53,12)"/>
<path d="M0 0 C1.69752187 0.25245197 3.38471545 0.57645775 5.0625 0.9375 C5.98160156 1.13214844 6.90070313 1.32679687 7.84765625 1.52734375 C8.91306641 1.76130859 8.91306641 1.76130859 10 2 C10 3.98 10 5.96 10 8 C9.01 8 8.02 8 7 8 C7.33 7.01 7.66 6.02 8 5 C5.69 5 3.38 5 1 5 C1.33 6.32 1.66 7.64 2 9 C0.68 8.67 -0.64 8.34 -2 8 C-1.125 1.125 -1.125 1.125 0 0 Z " fill="#204E8E" transform="translate(91,25)"/>
<path d="M0 0 C1.32 0 2.64 0 4 0 C5.38594404 4.67074055 5.06372054 9.15723892 5 14 C1.7 13.34 -1.6 12.68 -5 12 C-5 11.67 -5 11.34 -5 11 C-3.02 10.34 -1.04 9.68 1 9 C0.835 8.2575 0.67 7.515 0.5 6.75 C0 4 0 4 0 0 Z " fill="#D8E0EB" transform="translate(98,14)"/>
<path d="M0 0 C3.95820859 0.56545837 6.6659053 1.80902348 10 4 C9.125 8.75 9.125 8.75 8 11 C5.69 10.67 3.38 10.34 1 10 C1.66 9.01 2.32 8.02 3 7 C2.34 6.34 1.68 5.68 1 5 C0 1.7 0 1.7 0 0 Z " fill="#A2A6B5" transform="translate(27,10)"/>
<path d="M0 0 C0.99 0.33 1.98 0.66 3 1 C2.96519531 1.62648438 2.93039063 2.25296875 2.89453125 2.8984375 C2.86746094 3.71570313 2.84039062 4.53296875 2.8125 5.375 C2.77769531 6.18710937 2.74289063 6.99921875 2.70703125 7.8359375 C2.80371094 8.55007812 2.90039062 9.26421875 3 10 C3.99 10.66 4.98 11.32 6 12 C-0.875 11.125 -0.875 11.125 -2 10 C-2.27314815 4.26388889 -2.27314815 4.26388889 -2 2 C-1.34 1.34 -0.68 0.68 0 0 Z " fill="#285592" transform="translate(143,17)"/>
<path d="M0 0 C2.475 0.495 2.475 0.495 5 1 C4.67 4.3 4.34 7.6 4 11 C2.68 11 1.36 11 0 11 C0 7.37 0 3.74 0 0 Z " fill="#204F8E" transform="translate(104,17)"/>
<path d="M0 0 C1.66611905 -0.042721 3.33382885 -0.04063832 5 0 C6 1 6 1 6.09765625 3.28515625 C6.08605469 4.20167969 6.07445313 5.11820313 6.0625 6.0625 C6.05347656 6.98160156 6.04445313 7.90070312 6.03515625 8.84765625 C6.02355469 9.55792969 6.01195313 10.26820312 6 11 C4.68 11 3.36 11 2 11 C2 7.7 2 4.4 2 1 C1.34 0.67 0.68 0.34 0 0 Z " fill="#19498A" transform="translate(109,17)"/>
<path d="M0 0 C1.32 0 2.64 0 4 0 C4 3.63 4 7.26 4 11 C2.68 11 1.36 11 0 11 C0 7.37 0 3.74 0 0 Z " fill="#154688" transform="translate(70,17)"/>
<path d="M0 0 C1.32 0.33 2.64 0.66 4 1 C4.36103152 7.3782235 4.36103152 7.3782235 2.875 9.9375 C0.214973 11.44484863 -2.00206205 11.19986253 -5 11 C-4.03320312 10.64808594 -4.03320312 10.64808594 -3.046875 10.2890625 C-0.7922092 9.18838927 -0.7922092 9.18838927 -0.390625 6.8359375 C-0.34421875 6.02382813 -0.2978125 5.21171875 -0.25 4.375 C-0.19328125 3.55773437 -0.1365625 2.74046875 -0.078125 1.8984375 C-0.05234375 1.27195312 -0.0265625 0.64546875 0 0 Z " fill="#2C5894" transform="translate(125,18)"/>
<path d="M0 0 C0.99 0 1.98 0 3 0 C3 3.63 3 7.26 3 11 C4.32 11 5.64 11 7 11 C7 7.37 7 3.74 7 0 C7.33 0 7.66 0 8 0 C8.33 3.96 8.66 7.92 9 12 C6.69 12 4.38 12 2 12 C1.67 10.35 1.34 8.7 1 7 C0.67 7 0.34 7 0 7 C0 4.69 0 2.38 0 0 Z " fill="#C4D0E0" transform="translate(67,17)"/>
<path d="M0 0 C1.32 0.33 2.64 0.66 4 1 C4 1.66 4 2.32 4 3 C2.68 2.67 1.36 2.34 0 2 C0.185625 2.928125 0.37125 3.85625 0.5625 4.8125 C1.07122543 8.51892812 0.16821487 10.4953554 -1 14 C-1.99 13.34 -2.98 12.68 -4 12 C-3.45660208 7.43545749 -2.20536179 4.0271824 0 0 Z " fill="#F3E4E2" transform="translate(26,14)"/>
<path d="M0 0 C4.12751449 0.60698743 7.3321148 2.03810791 11 4 C10.814375 4.886875 10.62875 5.77375 10.4375 6.6875 C9.8136451 9.91350693 9.8136451 9.91350693 10.625 12.6875 C10.74875 13.450625 10.8725 14.21375 11 15 C9.5625 16.8125 9.5625 16.8125 8 18 C8.33 16.02 8.66 14.04 9 12 C8.01 11.67 7.02 11.34 6 11 C6.66 9.02 7.32 7.04 8 5 C5.36 3.68 2.72 2.36 0 1 C0 0.67 0 0.34 0 0 Z " fill="#EFE0CA" transform="translate(28,9)"/>
<path d="M0 0 C0.33 0 0.66 0 1 0 C1 3.3 1 6.6 1 10 C-0.65 10.33 -2.3 10.66 -4 11 C-4.33 9.35 -4.66 7.7 -5 6 C-3.35 5.67 -1.7 5.34 0 5 C0 3.35 0 1.7 0 0 Z " fill="#A0B4CF" transform="translate(82,18)"/>
<path d="M0 0 C0.99 0.33 1.98 0.66 3 1 C2.96519531 1.61488281 2.93039063 2.22976562 2.89453125 2.86328125 C2.86746094 3.67152344 2.84039063 4.47976562 2.8125 5.3125 C2.77769531 6.11300781 2.74289063 6.91351563 2.70703125 7.73828125 C3.06198392 10.47851584 3.89366282 11.29171079 6 13 C5.34 13.66 4.68 14.32 4 15 C4 14.34 4 13.68 4 13 C2.68 13.33 1.36 13.66 0 14 C0 9.38 0 4.76 0 0 Z " fill="#A79A80" transform="translate(20,16)"/>
<path d="M0 0 C0.66 0 1.32 0 2 0 C0.6393389 5.19525146 -1.35767388 8.17555757 -5 12 C-5.66 12 -6.32 12 -7 12 C-5.88971278 8.15669809 -5.02168791 5.64397692 -2 3 C-1.34 2.01 -0.68 1.02 0 0 Z " fill="#AEA8BA" transform="translate(40,21)"/>
<path d="M0 0 C2.31 0 4.62 0 7 0 C6.67 1.65 6.34 3.3 6 5 C3.69 5 1.38 5 -1 5 C-0.67 3.35 -0.34 1.7 0 0 Z " fill="#DFE6EF" transform="translate(92,30)"/>
<path d="M0 0 C-0.33 1.65 -0.66 3.3 -1 5 C-0.34 5.33 0.32 5.66 1 6 C-1 8 -3 10 -5 12 C-6.32 11.34 -7.64 10.68 -9 10 C-7.35 10 -5.7 10 -4 10 C-3.67 8.02 -3.34 6.04 -3 4 C-3.66 3.67 -4.32 3.34 -5 3 C-2.25 0 -2.25 0 0 0 Z " fill="#5E7184" transform="translate(29,21)"/>
<path d="M0 0 C3.96 1.98 3.96 1.98 8 4 C8 4.99 8 5.98 8 7 C5.69 7 3.38 7 1 7 C0.67 4.69 0.34 2.38 0 0 Z " fill="#C7D2E2" transform="translate(129,22)"/>
<path d="M0 0 C0.33 0 0.66 0 1 0 C1.66 2.31 2.32 4.62 3 7 C3.99 7 4.98 7 6 7 C6 7.66 6 8.32 6 9 C3.125 9.1875 3.125 9.1875 0 9 C-2 6 -2 6 -1.6875 3.375 C-1 1 -1 1 0 0 Z " fill="#F4F1ED" transform="translate(18,22)"/>
<path d="M0 0 C2.31 0 4.62 0 7 0 C7 0.66 7 1.32 7 2 C7.66 2 8.32 2 9 2 C7.25 7.75 7.25 7.75 5 10 C4.67 9.34 4.34 8.68 4 8 C4.9375 5.375 4.9375 5.375 6 3 C4.02 2.34 2.04 1.68 0 1 C0 0.67 0 0.34 0 0 Z " fill="#F3C567" transform="translate(33,10)"/>
<path d="M0 0 C0.33 0.66 0.66 1.32 1 2 C3.52733235 2.65555119 3.52733235 2.65555119 6 3 C5.38640625 3.24492187 4.7728125 3.48984375 4.140625 3.7421875 C1.57364433 5.25052285 0.96142096 6.44256788 -0.25 9.125 C-0.58515625 9.84945313 -0.9203125 10.57390625 -1.265625 11.3203125 C-1.50796875 11.87460937 -1.7503125 12.42890625 -2 13 C-2.33 13 -2.66 13 -3 13 C-2.52060632 8.28596212 -2.03165952 4.33420699 0 0 Z " fill="#F6CD7B" transform="translate(25,9)"/>
<path d="M0 0 C0.99 0 1.98 0 3 0 C3.33 1.65 3.66 3.3 4 5 C3.38125 5.12375 2.7625 5.2475 2.125 5.375 C-0.19120832 5.87197356 -0.19120832 5.87197356 -2 8 C-1.125 2.25 -1.125 2.25 0 0 Z " fill="#AEBFD6" transform="translate(161,18)"/>
<path d="M0 0 C0.66 0 1.32 0 2 0 C2 2.31 2 4.62 2 7 C0.68 6.67 -0.64 6.34 -2 6 C-1.125 1.125 -1.125 1.125 0 0 Z " fill="#1E4C8D" transform="translate(92,17)"/>
<path d="M0 0 C0.99 0 1.98 0 3 0 C3.66 1.65 4.32 3.3 5 5 C3.35 5.66 1.7 6.32 0 7 C0 4.69 0 2.38 0 0 Z " fill="#EAEEF4" transform="translate(87,20)"/>
<path d="M0 0 C0.66 0 1.32 0 2 0 C2.33 0.66 2.66 1.32 3 2 C5.02463255 2.65213292 5.02463255 2.65213292 7 3 C7.33 2.01 7.66 1.02 8 0 C8.33 0.99 8.66 1.98 9 3 C6 5 6 5 3.3125 4.625 C2.549375 4.41875 1.78625 4.2125 1 4 C0.67 2.68 0.34 1.36 0 0 Z " fill="#486075" transform="translate(9,18)"/>
<path d="M0 0 C1.98 0.66 3.96 1.32 6 2 C6 2.99 6 3.98 6 5 C3.3333581 6.33332095 1.83319697 5.67102033 -1 5 C-0.34 4.01 0.32 3.02 1 2 C0.67 1.34 0.34 0.68 0 0 Z " fill="#7F849C" transform="translate(29,15)"/>
<path d="M0 0 C1 3 1 3 -0.4375 6.1875 C-1.2109375 7.5796875 -1.2109375 7.5796875 -2 9 C-3.32 8.67 -4.64 8.34 -6 8 C-6 7.34 -6 6.68 -6 6 C-5.38125 5.7525 -4.7625 5.505 -4.125 5.25 C-1.64931313 3.79371361 -1.04874998 2.62187494 0 0 Z " fill="#F1EFE9" transform="translate(34,21)"/>
<path d="M0 0 C0.99 0 1.98 0 3 0 C3 1.65 3 3.3 3 5 C1.68 5 0.36 5 -1 5 C-0.67 3.35 -0.34 1.7 0 0 Z " fill="#18488A" transform="translate(78,23)"/>
<path d="M0 0 C0.66 0 1.32 0 2 0 C1.125 5.75 1.125 5.75 0 8 C-0.99 7.67 -1.98 7.34 -3 7 C-2.01 4.69 -1.02 2.38 0 0 Z " fill="#F6C86B" transform="translate(35,21)"/>
<path d="M0 0 C1.32 0.33 2.64 0.66 4 1 C4 2.32 4 3.64 4 5 C2.68 5 1.36 5 0 5 C0 3.35 0 1.7 0 0 Z " fill="#2F5A95" transform="translate(147,17)"/>
<path d="M0 0 C1.98 0 3.96 0 6 0 C6 0.33 6 0.66 6 1 C4.35 1 2.7 1 1 1 C1.33 2.32 1.66 3.64 2 5 C0.68 4.67 -0.64 4.34 -2 4 C-1.34 2.68 -0.68 1.36 0 0 Z " fill="#2F5A95" transform="translate(91,29)"/>
<path d="M0 0 C0.99 0 1.98 0 3 0 C2.67 1.65 2.34 3.3 2 5 C1.01 4.67 0.02 4.34 -1 4 C-0.67 2.68 -0.34 1.36 0 0 Z " fill="#3B649B" transform="translate(78,17)"/>
<path d="M0 0 C1.98 0.495 1.98 0.495 4 1 C3.67 1.99 3.34 2.98 3 4 C1.68 4 0.36 4 -1 4 C-0.67 2.68 -0.34 1.36 0 0 Z " fill="#275491" transform="translate(71,11)"/>
</svg>
